PathFileType	4	(X/Y/Z)	/Users/itak/Documents/Research/Walk-IL/dataset/trc/00241_00009.trc
DataRate	CameraRate	NumFrames	NumMarkers	Units	OrigDataRate	OrigDataStartFrame	OrigNumFrames
100.000000	100.000000	4	53	mm	100.000000	327	874
Frame#	Time	RPSI			LPSI			L3			STRN			T10			C7			CLAV			RBAK			LBAK			LSHO			LUPA			LAEL			LAOL			LWTS			LWPS			LFRA			LIFD			LHPS			LHTS			RSHO			RUPA			RAEL			RAOL			RWTS			RWPS			RFRA			RIFD			RHTS			RHPS			RBHD			LFHD			RFHD			LBHD			LHIP			RHIP			RASI			LASI			LKNE			LTHI			LANK			LTIP			LTOE			LMT1			LMT5			LHEE			RKNE			RTHI			RANK			RTIP			RTOE			RMT1			RMT5			RHEE			
		X1	Y1	Z1	X2	Y2	Z2	X3	Y3	Z3	X4	Y4	Z4	X5	Y5	Z5	X6	Y6	Z6	X7	Y7	Z7	X8	Y8	Z8	X9	Y9	Z9	X10	Y10	Z10	X11	Y11	Z11	X12	Y12	Z12	X13	Y13	Z13	X14	Y14	Z14	X15	Y15	Z15	X16	Y16	Z16	X17	Y17	Z17	X18	Y18	Z18	X19	Y19	Z19	X20	Y20	Z20	X21	Y21	Z21	X22	Y22	Z22	X23	Y23	Z23	X24	Y24	Z24	X25	Y25	Z25	X26	Y26	Z26	X27	Y27	Z27	X28	Y28	Z28	X29	Y29	Z29	X30	Y30	Z30	X31	Y31	Z31	X32	Y32	Z32	X33	Y33	Z33	X34	Y34	Z34	X35	Y35	Z35	X36	Y36	Z36	X37	Y37	Z37	X38	Y38	Z38	X39	Y39	Z39	X40	Y40	Z40	X41	Y41	Z41	X42	Y42	Z42	X43	Y43	Z43	X44	Y44	Z44	X45	Y45	Z45	X46	Y46	Z46	X47	Y47	Z47	X48	Y48	Z48	X49	Y49	Z49	X50	Y50	Z50	X51	Y51	Z51	X52	Y52	Z52	X53	Y53	Z53	

328	3.27	-508.5977172851562	1011.671813964844	42.14999771118164	-628.4578857421875	1017.583740234375	26.85895538330078	-576.7014770507812	1096.436645507812	42.31267166137695	-546.3844604492188	1276.687255859375	-206.6231079101562	-561.4686279296875	1223.276977539062	46.15374755859375	-543.0213012695312	1483.847412109375	-19.29400634765625	-539.43115234375	1393.841918945312	-181.3277282714844	-483.9363403320312	1342.286010742188	64.87770843505859	-655.1566772460938	1451.129272460938	-2.61380934715271	-708.0635375976562	1453.46875	-93.36992645263672	-795.9389038085938	1343.462890625	-57.6156120300293	-848.6205444335938	1139.801513671875	-53.23998260498047	-798.1796264648438	1120.3857421875	16.4357852935791	-819.733154296875	904.0225830078125	-148.9285888671875	-898.4305419921875	893.9157104492188	-118.7069931030273	-874.9522705078125	1034.579956054688	-74.36468505859375	-847.20654296875	712.0704956054688	-157.1976165771484	-903.8018798828125	806.4370727539062	-138.6410827636719	-852.3374633789062	806.8557739257812	-184.2764434814453	-374.2581176757812	1429.542724609375	-65.85845947265625	-313.1054382324219	1361.868408203125	-38.8498649597168	-289.2153015136719	1081.730102539062	-3.431531190872192	-381.2873840332031	1078.3779296875	22.18016624450684	-323.9259033203125	870.0228881835938	-144.4085235595703	-267.1994323730469	853.1870727539062	-83.83596801757812	-276.3672180175781	1012.645324707031	-27.7294979095459	-330.0555114746094	675.8756713867188	-161.4829254150391	-306.30419921875	748.5114135742188	-181.9407958984375	-264.0199279785156	747.0896606445312	-122.9451751708984	-490.4053955078125	1647.521606445312	-77.77585601806641	-522.570556640625	1651.076293945312	-302.7401123046875	-426.9182739257812	1643.279296875	-273.5165405273438	-604.5418090820312	1653.8603515625	-160.0447845458984	-748.4829711914062	962.0548706054688	-100.9300537109375	-388.4153442382812	966.806396484375	-35.74153518676758	-406.1745910644531	1012.657775878906	-137.7424926757812	-681.8642578125	1004.819641113281	-185.9408569335938	-652.6353759765625	521.5532836914062	-304.719970703125	-702.5980834960938	645.1853637695312	-247.0616149902344	-662.7073364257812	34.36705780029297	-351.6811218261719	-664.70703125	291.1492919921875	-329.5590209960938	-498.4204711914062	63.31404876708984	-494.8592834472656	-499.0151977539062	52.14578247070312	-415.8172607421875	-601.7828369140625	35.99928283691406	-464.6931457519531	-651.7778930664062	41.82112503051758	-271.5072631835938	-481.8015441894531	489.8737182617188	9.973111152648926	-398.9321899414062	738.5775146484375	-64.26906585693359	-571.3818359375	65.98037719726562	257.0960998535156	-518.9229736328125	374.5524597167969	44.82853317260742	-667.456298828125	42.60750198364258	67.77029418945312	-690.4796752929688	51.67665863037109	130.9652709960938	-572.9346923828125	39.29176712036133	148.0243225097656	-611.9583740234375	96.69205474853516	327.2149658203125	
329	3.28	-508.7374572753906	1012.249938964844	33.14158630371094	-628.46435546875	1018.613098144531	16.57540702819824	-577.0286254882812	1096.759765625	32.52178192138672	-544.18701171875	1277.86181640625	-215.4345703125	-562.0744018554688	1223.5302734375	36.92005920410156	-543.796142578125	1484.451904296875	-27.3824405670166	-537.8364868164062	1394.9248046875	-189.6365661621094	-485.7496032714844	1342.643310546875	57.01733779907227	-656.066650390625	1451.387817382812	-12.33865547180176	-707.8035888671875	1453.832397460938	-103.7784194946289	-795.8463745117188	1343.496704101562	-69.35260772705078	-847.9465942382812	1139.695556640625	-65.73682403564453	-798.2059326171875	1120.405395507812	4.507180213928223	-817.5877075195312	903.6718139648438	-160.5444183349609	-896.7080688476562	893.6557006835938	-131.2964477539062	-873.9303588867188	1034.411865234375	-86.98344421386719	-844.9749755859375	711.6397094726562	-168.2252349853516	-901.8103637695312	806.0906372070312	-150.9140625	-849.6986694335938	806.2802124023438	-195.8203277587891	-374.199951171875	1430.636962890625	-71.73564147949219	-313.3897399902344	1362.894897460938	-43.98990249633789	-290.2110900878906	1082.73876953125	-8.628822326660156	-382.8026428222656	1079.293090820312	15.21380233764648	-321.372314453125	869.9367065429688	-148.7549438476562	-265.82568359375	853.8577270507812	-86.94193267822266	-276.7325439453125	1013.671142578125	-32.3154182434082	-326.2964782714844	675.559814453125	-164.1609497070312	-302.5682678222656	748.143798828125	-184.79931640625	-261.3711547851562	747.466796875	-125.0276412963867	-490.717041015625	1648.3974609375	-84.65203094482422	-519.797119140625	1652.602416992188	-310.0531616210938	-424.5409851074219	1644.87451171875	-279.4920654296875	-603.7744750976562	1654.8349609375	-168.5289916992188	-747.0872192382812	963.5408325195312	-112.7311935424805	-387.9366760253906	966.9324340820312	-43.49790191650391	-404.0954895019531	1013.375366210938	-145.6346893310547	-679.4977416992188	1005.885437011719	-197.0172729492188	-649.133544921875	522.7217407226562	-314.7777404785156	-698.7562866210938	646.996337890625	-258.1824645996094	-662.7816162109375	34.25425338745117	-352.8844299316406	-662.8739624023438	291.3897094726562	-336.1914367675781	-496.9587097167969	58.74052047729492	-496.1697387695312	-498.4891662597656	49.71736907958984	-416.8148498535156	-601.5940551757812	34.12042999267578	-466.1803894042969	-652.2408447265625	42.72878265380859	-272.8154907226562	-480.6536560058594	489.9098510742188	1.595791101455688	-398.1327209472656	738.775146484375	-71.77481842041016	-571.3698120117188	69.37995910644531	255.5348205566406	-517.6273193359375	374.6614379882812	37.57803726196289	-667.30859375	42.65633392333984	67.43086242675781	-690.541015625	52.69719696044922	130.0203399658203	-573.1228637695312	39.60071563720703	147.2944030761719	-612.0001831054688	102.5060729980469	324.4942016601562	
330	3.29	-508.788330078125	1012.934143066406	24.24288749694824	-628.3562622070312	1019.697998046875	6.364469051361084	-577.2254028320312	1097.348388671875	22.8106632232666	-541.8953247070312	1279.194702148438	-224.1736755371094	-562.53125	1224.036254882812	27.67621803283691	-544.5037231445312	1485.28076171875	-35.51679611206055	-536.15087890625	1396.181884765625	-197.9416351318359	-487.4058227539062	1343.271606445312	49.13977813720703	-656.881103515625	1451.874633789062	-22.11840057373047	-707.440185546875	1454.411010742188	-114.2524871826172	-795.610595703125	1343.751953125	-81.19872283935547	-847.0629272460938	1139.786865234375	-78.41756439208984	-798.0842895507812	1120.62353515625	-7.567776679992676	-815.1755981445312	903.4790649414062	-172.2538299560547	-894.7507934570312	893.5875854492188	-144.0497436523438	-872.6852416992188	1034.442993164062	-99.78193664550781	-842.5213623046875	711.3541259765625	-179.1347045898438	-899.5728759765625	805.9168090820312	-163.2536163330078	-846.792236328125	805.8190307617188	-207.3706512451172	-374.0965881347656	1431.959716796875	-77.70772552490234	-313.5887451171875	1364.170532226562	-49.24185943603516	-291.1684875488281	1084.003784179688	-13.83959484100342	-384.2340087890625	1080.47900390625	8.24603271484375	-318.8236083984375	870.21337890625	-153.1849670410156	-264.5487976074219	854.8226928710938	-90.12538146972656	-277.106201171875	1014.946960449219	-36.92495727539062	-322.6792907714844	675.607177734375	-166.9612426757812	-298.9137268066406	748.149169921875	-187.7504730224609	-258.8683471679688	748.1712646484375	-127.2105102539062	-490.9861145019531	1649.421508789062	-91.569580078125	-516.9606323242188	1654.310791015625	-317.3669738769531	-422.1385192871094	1646.649780273438	-285.4769897460938	-602.9364013671875	1655.96142578125	-177.0455169677734	-745.6317749023438	965.15234375	-124.3906936645508	-387.3256225585938	967.2743530273438	-51.16049575805664	-401.8862609863281	1014.338439941406	-153.4878692626953	-677.1132202148438	1007.175231933594	-207.9705810546875	-646.100341796875	523.7802734375	-324.4300537109375	-695.1431884765625	648.9058837890625	-269.0220642089844	-662.9747924804688	34.15420532226562	-353.7120971679688	-661.45556640625	291.6329040527344	-342.1854553222656	-496.2164001464844	55.19802856445312	-497.2865905761719	-498.3860168457031	48.05313491821289	-417.7077941894531	-601.904296875	32.91036987304688	-467.3402404785156	-652.6655883789062	43.36051559448242	-273.7827758789062	-479.1471557617188	489.9473876953125	-7.432482242584229	-397.2573852539062	739.1654052734375	-79.45224761962891	-571.2211303710938	73.08878326416016	253.6390686035156	-515.9578247070312	374.7732543945312	29.72785568237305	-667.1666870117188	42.71257400512695	67.13793182373047	-690.5802612304688	53.80464172363281	129.0176696777344	-573.3148193359375	39.87625503540039	146.4447326660156	-611.886474609375	108.8061676025391	321.2173461914062	
331	3.3	-508.8161926269531	1013.728515625	15.49184608459473	-628.187744140625	1020.827880859375	-3.776704549789429	-577.3607177734375	1098.198120117188	13.21246528625488	-539.508056640625	1280.667602539062	-232.8243255615234	-562.8975830078125	1224.783569335938	18.437255859375	-545.1484375	1486.318359375	-43.68281936645508	-534.378173828125	1397.594848632812	-206.2265625	-488.8890991210938	1344.16748046875	41.27821350097656	-657.59619140625	1452.572265625	-31.93299865722656	-706.973388671875	1455.188232421875	-124.7671203613281	-795.2283325195312	1344.216430664062	-93.11929321289062	-845.9779052734375	1140.06494140625	-91.25371551513672	-797.8409423828125	1121.028076171875	-19.7659854888916	-812.5062866210938	903.461669921875	-184.0639190673828	-892.5599975585938	893.7119140625	-156.9870758056641	-871.217529296875	1034.666748046875	-112.7460479736328	-839.8340454101562	711.2276611328125	-189.9780883789062	-897.0804443359375	805.9180908203125	-175.6955261230469	-843.6073608398438	805.4921875	-218.9556884765625	-373.9511413574219	1433.488647460938	-83.76404571533203	-313.7042236328125	1365.68017578125	-54.59536361694336	-292.0469970703125	1085.512451171875	-19.05073928833008	-385.5350952148438	1081.927124023438	1.324190497398376	-316.2968444824219	870.8541870117188	-157.6984100341797	-263.3551940917969	856.06591796875	-93.4073486328125	-277.4498596191406	1016.457763671875	-41.55729293823242	-319.2418518066406	676.0202026367188	-169.9208831787109	-295.3801879882812	748.5293579101562	-190.8256988525391	-256.5293273925781	749.1842041015625	-129.5342712402344	-491.21240234375	1650.589111328125	-98.53302001953125	-514.0635986328125	1656.1611328125	-324.68017578125	-419.7112426757812	1648.569702148438	-291.4704284667969	-602.025634765625	1657.216430664062	-185.5940551757812	-744.1270141601562	966.8474731445312	-135.9425354003906	-386.6233215332031	967.8438110351562	-58.64956283569336	-399.588134765625	1015.529541015625	-161.2247467041016	-674.701171875	1008.645324707031	-218.80322265625	-643.4935302734375	524.6314697265625	-333.5355529785156	-691.878173828125	650.7332153320312	-279.4332580566406	-663.1871337890625	34.06181716918945	-354.2492065429688	-660.3153686523438	291.842529296875	-347.5674743652344	-495.8250427246094	52.49972534179688	-498.1238403320312	-498.4374694824219	46.94367599487305	-418.3875732421875	-602.385986328125	32.23527526855469	-468.1776123046875	-653.0502319335938	43.76796340942383	-274.4658813476562	-477.2110900878906	489.9642639160156	-17.12399864196777	-396.2904968261719	739.7484741210938	-87.26738739013672	-570.9263305664062	77.13143157958984	251.3552093505859	-513.8339233398438	374.8851013183594	21.25894546508789	-667.0394287109375	42.77059555053711	66.90647125244141	-690.59423828125	55.00786209106445	127.9449844360352	-573.523193359375	40.11601257324219	145.46484375	-611.6148681640625	115.5997009277344	317.3090515136719	
